<svg width="31" height="31" viewBox="0 0 31 31" fill="none" xmlns="http://www.w3.org/2000/svg">
<path d="M7.55641 22.0877C8.65433 21.2481 9.88141 20.5861 11.2377 20.1017C12.5939 19.6174 14.0147 19.3752 15.5002 19.3752C16.9856 19.3752 18.4064 19.6174 19.7627 20.1017C21.1189 20.5861 22.346 21.2481 23.4439 22.0877C24.1974 21.205 24.784 20.204 25.2038 19.0845C25.6236 17.9651 25.8335 16.7703 25.8335 15.5002C25.8335 12.637 24.8271 10.1989 22.8142 8.1861C20.8014 6.17325 18.3634 5.16683 15.5002 5.16683C12.637 5.16683 10.1989 6.17325 8.1861 8.1861C6.17325 10.1989 5.16683 12.637 5.16683 15.5002C5.16683 16.7703 5.37673 17.9651 5.79652 19.0845C6.21631 20.204 6.80294 21.205 7.55641 22.0877ZM15.5002 16.7918C14.23 16.7918 13.159 16.3559 12.2871 15.484C11.4153 14.6121 10.9793 13.5411 10.9793 12.271C10.9793 11.0009 11.4153 9.92985 12.2871 9.05798C13.159 8.1861 14.23 7.75016 15.5002 7.75016C16.7703 7.75016 17.8413 8.1861 18.7132 9.05798C19.5851 9.92985 20.021 11.0009 20.021 12.271C20.021 13.5411 19.5851 14.6121 18.7132 15.484C17.8413 16.3559 16.7703 16.7918 15.5002 16.7918ZM15.5002 28.4168C13.7134 28.4168 12.0342 28.0778 10.4627 27.3996C8.89114 26.7215 7.52412 25.8012 6.36162 24.6387C5.19912 23.4762 4.27881 22.1092 3.60068 20.5377C2.92256 18.9661 2.5835 17.287 2.5835 15.5002C2.5835 13.7134 2.92256 12.0342 3.60068 10.4627C4.27881 8.89114 5.19912 7.52412 6.36162 6.36162C7.52412 5.19912 8.89114 4.27881 10.4627 3.60068C12.0342 2.92256 13.7134 2.5835 15.5002 2.5835C17.287 2.5835 18.9661 2.92256 20.5377 3.60068C22.1092 4.27881 23.4762 5.19912 24.6387 6.36162C25.8012 7.52412 26.7215 8.89114 27.3996 10.4627C28.0778 12.0342 28.4168 13.7134 28.4168 15.5002C28.4168 17.287 28.0778 18.9661 27.3996 20.5377C26.7215 22.1092 25.8012 23.4762 24.6387 24.6387C23.4762 25.8012 22.1092 26.7215 20.5377 27.3996C18.9661 28.0778 17.287 28.4168 15.5002 28.4168Z" fill="#4D5673"/>
</svg>
