<svg width="32" height="32" viewBox="0 0 32 32" fill="none" xmlns="http://www.w3.org/2000/svg">
<path d="M12.1203 11.9998C12.4338 11.1087 13.0525 10.3573 13.8669 9.87868C14.6813 9.40005 15.6389 9.22509 16.5699 9.38479C17.5009 9.54448 18.3454 10.0285 18.9538 10.7512C19.5621 11.4739 19.8951 12.3885 19.8937 13.3332C19.8937 15.9998 15.8937 17.3332 15.8937 17.3332M16.0003 22.6665H16.0137M29.3337 15.9998C29.3337 23.3636 23.3641 29.3332 16.0003 29.3332C8.63653 29.3332 2.66699 23.3636 2.66699 15.9998C2.66699 8.63604 8.63653 2.6665 16.0003 2.6665C23.3641 2.6665 29.3337 8.63604 29.3337 15.9998Z" stroke="#4D5673" stroke-width="3" stroke-linecap="round" stroke-linejoin="round"/>
</svg>
