<svg width="31" height="31" viewBox="0 0 31 31" fill="none" xmlns="http://www.w3.org/2000/svg">
<g clip-path="url(#clip0_3214_3622)">
<path d="M1.2915 1.2915H6.45817L9.91984 18.5869C10.038 19.1816 10.3615 19.7158 10.8337 20.096C11.306 20.4762 11.897 20.6781 12.5032 20.6665H25.0582C25.6643 20.6781 26.2553 20.4762 26.7276 20.096C27.1999 19.7158 27.5234 19.1816 27.6415 18.5869L29.7082 7.74984H7.74984M12.9165 27.1248C12.9165 27.8382 12.3382 28.4165 11.6248 28.4165C10.9115 28.4165 10.3332 27.8382 10.3332 27.1248C10.3332 26.4115 10.9115 25.8332 11.6248 25.8332C12.3382 25.8332 12.9165 26.4115 12.9165 27.1248ZM27.1248 27.1248C27.1248 27.8382 26.5465 28.4165 25.8332 28.4165C25.1198 28.4165 24.5415 27.8382 24.5415 27.1248C24.5415 26.4115 25.1198 25.8332 25.8332 25.8332C26.5465 25.8332 27.1248 26.4115 27.1248 27.1248Z" stroke="#4D5673" stroke-width="3.5" stroke-linecap="round" stroke-linejoin="round"/>
</g>
<defs>
<clipPath id="clip0_3214_3622">
<rect width="31" height="31" fill="white"/>
</clipPath>
</defs>
</svg>
